<svg width="186" height="43" viewBox="0 0 186 43" fill="none" xmlns="http://www.w3.org/2000/svg">
<path d="M21.0487 36.3109L26.0338 15.4546H30.847L35.8321 36.3109L28.3258 42.2698L21.0487 36.3109Z" fill="#FF6600"/>
<path d="M30.847 14.1855H26.0338L24.2575 11.5371C23.762 10.59 24.8785 9.72056 25.6366 9.66113H31.2998C31.9966 9.66113 32.8505 10.8358 32.4514 11.5371L30.847 14.1855Z" fill="#FF6600"/>
<path d="M16.8584 30.0469V25.2789L24.7443 16.7319L21.6999 28.8814L16.8584 30.0469Z" fill="#FF6600"/>
<path d="M24.2574 11.5371C23.7619 10.59 24.8784 9.72056 25.6365 9.66113H28.4681L28.4403 14.1855H26.0337L24.2574 11.5371Z" fill="url(#paint0_linear_2335_31573)"/>
<path d="M28.3145 15.4551H30.8446L33.114 24.9242L28.3145 29.6714V15.4551Z" fill="url(#paint1_linear_2335_31573)"/>
<path fill-rule="evenodd" clip-rule="evenodd" d="M22.6447 29.5268L22.2558 31.1539C25.5168 27.9811 32.0777 21.5806 32.2336 21.3613L32.0387 20.546L22.6447 29.5268ZM30.8216 15.4541L31.0864 16.5618L24.1715 23.1391L24.4825 21.8383L30.8216 15.4541ZM33.1438 25.1695L21.2949 36.5328L22.0068 37.1158L33.395 26.2203L33.1438 25.1695ZM25.2244 39.7506L24.5297 39.1606L34.2693 29.8783L34.54 31.0105L25.2244 39.7506Z" fill="white"/>
<rect x="44" width="37.4396" height="16.9082" rx="3.62319" fill="#FF6600"/>
<path d="M47.6955 6.91546H49.024L50.3284 9.81401L51.6327 6.91546H52.9612L50.3284 12.3623L47.6955 6.91546ZM61.6767 10.8647V12H56.2661L59.0559 8.61836C59.4746 8.11111 59.7966 7.69243 60.0221 7.36232C60.3039 6.94364 60.4448 6.55717 60.4448 6.2029C60.4448 5.84058 60.328 5.53462 60.0946 5.28502C59.8611 5.02737 59.5309 4.89855 59.1042 4.89855C58.6775 4.89855 58.3393 5.03945 58.0897 5.32126C57.8401 5.60306 57.7032 5.94927 57.6791 6.3599H56.4955C56.5277 5.65137 56.7532 5.06361 57.1718 4.59662C57.6388 4.07327 58.2669 3.81159 59.0559 3.81159C59.8691 3.81159 60.5052 4.04911 60.9641 4.52415C61.4231 4.99919 61.6525 5.57085 61.6525 6.23913C61.6525 6.79469 61.4593 7.35829 61.0728 7.92995C60.8635 8.24396 60.481 8.72705 59.9255 9.37923L58.6694 10.8647H61.6767ZM63.7221 11.9396C63.5852 11.7947 63.5168 11.6216 63.5168 11.4203C63.5168 11.219 63.5852 11.0499 63.7221 10.913C63.867 10.7681 64.0401 10.6957 64.2414 10.6957C64.4427 10.6957 64.6118 10.7681 64.7487 10.913C64.8936 11.0499 64.966 11.219 64.966 11.4203C64.966 11.6216 64.8936 11.7947 64.7487 11.9396C64.6118 12.0765 64.4427 12.1449 64.2414 12.1449C64.0401 12.1449 63.867 12.0765 63.7221 11.9396ZM71.0162 11.2633C70.509 11.843 69.9011 12.1329 69.1925 12.1329C68.484 12.1329 67.8761 11.843 67.3689 11.2633C66.6845 10.4823 66.3423 9.38728 66.3423 7.97826C66.3423 6.56119 66.6845 5.46216 67.3689 4.68116C67.8761 4.10145 68.484 3.81159 69.1925 3.81159C69.9011 3.81159 70.509 4.10145 71.0162 4.68116C71.7006 5.46216 72.0428 6.56119 72.0428 7.97826C72.0428 9.38728 71.7006 10.4823 71.0162 11.2633ZM70.2795 5.5628C69.9896 5.11997 69.6273 4.89855 69.1925 4.89855C68.7577 4.89855 68.3954 5.11997 68.1056 5.5628C67.7352 6.11031 67.55 6.91143 67.55 7.96618C67.55 9.01288 67.7352 9.81804 68.1056 10.3816C68.3954 10.8245 68.7577 11.0459 69.1925 11.0459C69.6273 11.0459 69.9896 10.8245 70.2795 10.3816C70.6499 9.81804 70.835 9.01288 70.835 7.96618C70.835 6.91143 70.6499 6.11031 70.2795 5.5628ZM74.5965 12V5.07971H73.1955L73.8718 3.94444H75.8283V12H74.5965Z" fill="white"/>
<defs>
<linearGradient id="paint0_linear_2335_31573" x1="26.3014" y1="14.1855" x2="29.916" y2="11.8256" gradientUnits="userSpaceOnUse">
<stop stop-color="#EA7438" stop-opacity="0"/>
<stop offset="1" stop-color="#EA8D38"/>
</linearGradient>
<linearGradient id="paint1_linear_2335_31573" x1="28.3145" y1="29.6714" x2="33.1122" y2="30.0175" gradientUnits="userSpaceOnUse">
<stop stop-color="#EAB838"/>
<stop offset="1" stop-color="#EA7438" stop-opacity="0"/>
</linearGradient>
</defs>
</svg>
