<svg width="15.000000" height="13.000000" viewBox="0 0 15 13" fill="none" xmlns="http://www.w3.org/2000/svg" xmlns:xlink="http://www.w3.org/1999/xlink">
	<desc>
			Created with Pixso.
	</desc>
	<defs/>
	<path id="Фото" d="M0 0.71C0 0.52 0.08 0.34 0.21 0.21C0.35 0.07 0.54 0 0.74 0L14.25 0C14.66 0 15 0.32 15 0.71L15 12.28C14.99 12.47 14.91 12.65 14.78 12.78C14.64 12.92 14.45 12.99 14.25 13L0.74 13C0.54 13 0.35 12.92 0.21 12.79C0.07 12.65 0 12.47 0 12.28L0 0.71ZM7.5 8.66C6.9 8.66 6.33 8.43 5.9 8.03C5.48 7.62 5.25 7.07 5.25 6.5C5.25 5.92 5.48 5.37 5.9 4.96C6.33 4.56 6.9 4.33 7.5 4.33C8.09 4.33 8.66 4.56 9.09 4.96C9.51 5.37 9.75 5.92 9.75 6.5C9.75 7.07 9.51 7.62 9.09 8.03C8.66 8.43 8.09 8.66 7.5 8.66ZM7.5 10.11C8.49 10.11 9.44 9.73 10.15 9.05C10.85 8.37 11.25 7.45 11.25 6.5C11.25 5.54 10.85 4.62 10.15 3.94C9.44 3.26 8.49 2.88 7.5 2.88C6.5 2.88 5.55 3.26 4.84 3.94C4.14 4.62 3.75 5.54 3.75 6.5C3.75 7.45 4.14 8.37 4.84 9.05C5.55 9.73 6.5 10.11 7.5 10.11ZM12 1.44L12 2.88L13.5 2.88L13.5 1.44L12 1.44Z" fill="#FFFFFF" fill-opacity="1.000000" fill-rule="nonzero"/>
</svg>
